<?xml version="1.0" encoding="UTF-8"?>
<svg xmlns="http://www.w3.org/2000/svg" viewBox="0 0 24 24" width="24" height="24">
  <path fill="#3b82f6" d="M16 2C15.6868 2 15.3864 2.05797 15.1127 2.16693C14.839 2.2759 14.5978 2.43438 14.4062 2.63147C14.2147 2.82855 14.0769 3.06022 14.0023 3.31089C13.9276 3.56156 13.9177 3.82501 13.9733 4.08H10.0267C10.0823 3.82501 10.0724 3.56156 9.99772 3.31089C9.92308 3.06022 9.78535 2.82855 9.59376 2.63147C9.40217 2.43438 9.16098 2.2759 8.88729 2.16693C8.6136 2.05797 8.31322 2 8 2L4 4V10C4 10.2652 4.10536 10.5196 4.29289 10.7071C4.48043 10.8946 4.73478 11 5 11H8L8.293 18.469C8.3281 18.7558 8.46569 19.0207 8.6792 19.2129C8.8927 19.4051 9.16875 19.5114 9.458 19.511H14.542C14.8313 19.5114 15.1073 19.4051 15.3208 19.2129C15.5343 19.0207 15.6719 18.7558 15.707 18.469L16 11H19C19.2652 11 19.5196 10.8946 19.7071 10.7071C19.8946 10.5196 20 10.2652 20 10V4L16 2Z" />
</svg>